<?xml version="1.0" standalone="no"?>
<!DOCTYPE svg PUBLIC "-//W3C//DTD SVG 1.1//EN" "http://www.w3.org/Graphics/SVG/1.1/DTD/svg11.dtd" >
<svg xmlns="http://www.w3.org/2000/svg">
<metadata>Generated by IcoMoon</metadata>
<defs>
<font id="icomoon" horiz-adv-x="1024">
<font-face units-per-em="1024" ascent="960" descent="-64" />
<missing-glyph horiz-adv-x="1024" />
<glyph unicode="&#x20;" horiz-adv-x="512" d="" />
<glyph unicode="&#xe900;" glyph-name="arrow-d" d="M537.6 204.8l358.4 464c6.4 6.4 6.4 22.4-3.2 28.8s-25.6 6.4-32-3.2l-348.8-448-348.8 448c-6.4 9.6-22.4 9.6-32 3.2-6.4-3.2-9.6-9.6-9.6-16 0-3.2 0-9.6 3.2-12.8l358.4-460.8c6.4-6.4 16-12.8 25.6-12.8s22.4 3.2 28.8 9.6z" />
<glyph unicode="&#xe901;" glyph-name="arrow-l" d="M268.8 419.2l464-358.4c6.4-6.4 22.4-6.4 28.8 3.2s6.4 25.6-3.2 32l-448 348.8 448 348.8c9.6 6.4 9.6 22.4 3.2 32-3.2 6.4-9.6 9.6-16 9.6-3.2 0-9.6 0-12.8-3.2l-460.8-358.4c-6.4-6.4-12.8-16-12.8-25.6s3.2-22.4 9.6-28.8z" />
<glyph unicode="&#xe902;" glyph-name="arrow-r" d="M755.2 473.6l-464 358.4c-6.4 6.4-22.4 6.4-28.8-3.2s-6.4-25.6 3.2-32l448-348.8-448-348.8c-9.6-6.4-9.6-22.4-3.2-32 3.2-6.4 9.6-9.6 16-9.6 3.2 0 9.6 0 12.8 3.2l460.8 358.4c6.4 6.4 12.8 16 12.8 25.6s-3.2 22.4-9.6 28.8z" />
<glyph unicode="&#xe903;" glyph-name="arrow-u" d="M486.4 691.2l-358.4-464c-6.4-6.4-6.4-22.4 3.2-28.8s25.6-6.4 32 3.2l348.8 448 348.8-448c6.4-9.6 22.4-9.6 32-3.2 6.4 3.2 9.6 9.6 9.6 16 0 3.2 0 9.6-3.2 12.8l-358.4 460.8c-6.4 6.4-16 12.8-25.6 12.8s-22.4-3.2-28.8-9.6z" />
<glyph unicode="&#xe904;" glyph-name="cancel" d="M544 448l313.6 313.6c9.6 9.6 9.6 22.4 0 32s-22.4 9.6-32 0l-313.6-313.6-313.6 310.4c-6.4 9.6-22.4 9.6-28.8 0-9.6-6.4-9.6-22.4 0-28.8l310.4-313.6-313.6-313.6c-9.6-9.6-9.6-22.4 0-32 3.2-3.2 9.6-6.4 16-6.4s9.6 3.2 16 6.4l313.6 313.6 313.6-313.6c3.2-3.2 9.6-6.4 16-6.4s9.6 3.2 16 6.4c9.6 9.6 9.6 22.4 0 32l-313.6 313.6z" />
<glyph unicode="&#xe905;" glyph-name="carrot-d" d="M835.2 761.6h-656c-6.4 0-9.6-6.4-6.4-12.8l329.6-608c3.2-6.4 9.6-6.4 12.8 0l326.4 608c3.2 6.4 0 12.8-6.4 12.8z" />
<glyph unicode="&#xe906;" glyph-name="carrot-l" d="M822.4 121.6v656c0 6.4-6.4 9.6-12.8 6.4l-608-329.6c-6.4-3.2-6.4-9.6 0-12.8l608-326.4c6.4-3.2 12.8 0 12.8 6.4z" />
<glyph unicode="&#xe907;" glyph-name="carrot-r" d="M195.2 777.6v-656c0-6.4 6.4-9.6 12.8-6.4l608 329.6c6.4 3.2 6.4 9.6 0 12.8l-608 326.4c-6.4 3.2-12.8 0-12.8-6.4z" />
<glyph unicode="&#xe908;" glyph-name="carrot-u" d="M179.2 137.6h656c6.4 0 9.6 6.4 6.4 12.8l-329.6 608c-3.2 6.4-9.6 6.4-12.8 0l-326.4-608c-3.2-6.4 0-12.8 6.4-12.8z" />
<glyph unicode="&#xe909;" glyph-name="cart" d="M988.8 627.2c-3.2 3.2-6.4 6.4-12.8 6.4h-713.6l-48 169.6c-3.2 6.4-9.6 9.6-16 9.6h-150.4c-9.6 0-16-6.4-16-12.8 0-9.6 6.4-16 16-16h140.8l48-169.6c0 0 0 0 0 0s0 0 0 0l32-99.2c0 0 0 0 0 0l41.6-124.8c0 0 0 0 0 0l41.6-128c3.2-6.4 6.4-9.6 12.8-9.6h505.6c6.4 0 12.8 3.2 12.8 9.6l108.8 352c0 3.2 0 6.4-3.2 12.8zM899.2 406.4h-67.2l25.6 96h70.4l-28.8-96zM800 406.4h-64l12.8 96h76.8l-25.6-96zM720 278.4l12.8 99.2h60.8l-25.6-99.2h-48zM464 278.4l-25.6 99.2h60.8l12.8-99.2h-48zM300.8 502.4h70.4l25.6-96h-64l-32 96zM406.4 502.4h73.6l12.8-96h-64l-22.4 96zM636.8 502.4h83.2l-12.8-96h-70.4v96zM608 406.4h-83.2l-12.8 96h96v-96zM636.8 534.4v70.4h96l-9.6-70.4h-86.4zM608 534.4h-102.4l-9.6 70.4h112v-70.4zM476.8 534.4h-80l-16 70.4h86.4l9.6-70.4zM528 377.6h80v-99.2h-67.2l-12.8 99.2zM636.8 377.6h64l-12.8-99.2h-51.2v99.2zM755.2 534.4l9.6 70.4h86.4l-19.2-70.4h-76.8zM348.8 601.6l16-70.4h-73.6l-22.4 70.4h80zM342.4 377.6h64l25.6-99.2h-57.6l-32 99.2zM860.8 278.4h-60.8l25.6 99.2h64l-28.8-99.2zM937.6 534.4h-73.6l16 70.4h76.8l-19.2-70.4zM406.4 214.4c-35.2 0-64-28.8-64-64s28.8-64 64-64c35.2 0 64 28.8 64 64 0 32-28.8 64-64 64zM406.4 112c-19.2 0-35.2 16-35.2 35.2s16 35.2 35.2 35.2c19.2 0 35.2-16 35.2-35.2s-16-35.2-35.2-35.2zM819.2 214.4c-35.2 0-64-28.8-64-64s28.8-64 64-64c35.2 0 64 28.8 64 64 3.2 32-28.8 64-64 64zM819.2 112c-19.2 0-35.2 16-35.2 35.2s16 35.2 35.2 35.2c19.2 0 35.2-16 35.2-35.2s-16-35.2-35.2-35.2z" />
<glyph unicode="&#xe90a;" glyph-name="chat" d="M512 899.2c-278.4 0-505.6-176-505.6-393.6 0-108.8 57.6-214.4 156.8-288v-201.6c0-9.6 6.4-16 12.8-19.2 3.2 0 6.4 0 6.4 0 6.4 0 9.6 3.2 12.8 6.4l134.4 134.4c57.6-16 118.4-25.6 179.2-25.6 278.4 0 505.6 176 505.6 393.6s-224 393.6-502.4 393.6zM512 150.4c-60.8 0-121.6 9.6-179.2 25.6-6.4 3.2-16 0-19.2-6.4l-108.8-105.6v163.2c0 6.4-3.2 12.8-9.6 16-96 67.2-150.4 163.2-150.4 259.2 3.2 198.4 211.2 358.4 467.2 358.4s464-160 464-355.2c0-195.2-208-355.2-464-355.2z" />
<glyph unicode="&#xe90b;" glyph-name="checkmark" d="M912 816c-12.8 9.6-28.8 6.4-38.4-3.2l-512-662.4-211.2 352c-6.4 9.6-22.4 12.8-35.2 6.4s-16-22.4-9.6-35.2l230.4-384c3.2-6.4 12.8-12.8 22.4-12.8 0 0 0 0 0 0 9.6 0 16 3.2 22.4 9.6l537.6 691.2c6.4 12.8 6.4 28.8-6.4 38.4z" />
<glyph unicode="&#xe90c;" glyph-name="external" d="M1017.6 876.8c0 16-12.8 25.6-28.8 25.6l-310.4-51.2c-9.6 0-16-9.6-19.2-19.2s0-19.2 6.4-25.6l51.2-41.6-9.6-9.6h-524.8c-96 0-176-80-176-176v-406.4c0-96 80-176 176-176h540.8c96 0 176 80 176 176v384l25.6 28.8 51.2-41.6c6.4-6.4 19.2-6.4 25.6-3.2 9.6 3.2 12.8 12.8 12.8 22.4l3.2 313.6zM940.8 640c-9.6 9.6-25.6 6.4-35.2-3.2l-323.2-377.6c-9.6-9.6-6.4-25.6 3.2-35.2s25.6-6.4 35.2 3.2l236.8 278.4v-332.8c0-73.6-60.8-131.2-131.2-131.2h-544c-73.6 0-131.2 60.8-131.2 131.2v406.4c0 73.6 60.8 131.2 131.2 131.2l476.8-9.6-249.6-294.4c-9.6-9.6-6.4-25.6 3.2-35.2s25.6-6.4 35.2 3.2l320 377.6c9.6 9.6 6.4 25.6-3.2 35.2l-28.8 25.6 230.4 35.2v-233.6l-25.6 25.6z" />
<glyph unicode="&#xe90d;" glyph-name="facebook" d="M608 764.8h156.8v188.8h-156.8c-121.6 0-220.8-99.2-220.8-220.8v-96h-128v-188.8h128v-505.6h188.8v505.6h156.8l32 188.8h-188.8v96c0 16 12.8 32 32 32z" />
<glyph unicode="&#xe90e;" glyph-name="hamburger" d="M92.8 793.6h835.2c12.8 0 25.6 9.6 25.6 25.6s-12.8 22.4-25.6 22.4h-835.2c-12.8 0-22.4-9.6-22.4-22.4s9.6-25.6 22.4-25.6zM928 496h-835.2c-12.8 0-25.6-9.6-25.6-25.6s12.8-22.4 25.6-22.4h835.2c12.8 0 25.6 9.6 25.6 25.6s-12.8 22.4-25.6 22.4zM928 150.4h-835.2c-12.8 0-25.6-9.6-25.6-25.6s9.6-25.6 25.6-25.6h835.2c12.8 0 25.6 9.6 25.6 25.6s-12.8 25.6-25.6 25.6z" />
<glyph unicode="&#xe90f;" glyph-name="heart-filled" d="M963.2 780.8c-38.4 64-96 102.4-172.8 108.8-144 19.2-240-73.6-278.4-121.6-38.4 44.8-134.4 137.6-278.4 121.6-73.6-6.4-134.4-44.8-172.8-108.8-44.8-76.8-54.4-179.2-22.4-265.6 57.6-182.4 444.8-496 460.8-508.8 3.2-3.2 9.6-3.2 12.8-3.2s9.6 0 12.8 3.2c16 12.8 403.2 323.2 460.8 508.8 32 86.4 22.4 188.8-22.4 265.6z" />
<glyph unicode="&#xe910;" glyph-name="heart" d="M963.2 780.8c-38.4 64-96 102.4-172.8 108.8-144 19.2-240-73.6-278.4-121.6-38.4 44.8-134.4 137.6-278.4 121.6-73.6-6.4-134.4-44.8-172.8-108.8-44.8-76.8-54.4-179.2-22.4-265.6 57.6-182.4 444.8-496 460.8-508.8 3.2-3.2 9.6-3.2 12.8-3.2s9.6 0 12.8 3.2c16 12.8 403.2 323.2 460.8 508.8 32 86.4 22.4 188.8-22.4 265.6zM944 528c-48-153.6-361.6-419.2-432-476.8-70.4 57.6-384 323.2-432 480-28.8 73.6-19.2 163.2 19.2 227.2 22.4 35.2 64 80 140.8 89.6 9.6 0 19.2 3.2 32 3.2 140.8 0 220.8-121.6 224-128s9.6-9.6 19.2-9.6c0 0 0 0 0 0 6.4 0 12.8 3.2 19.2 9.6 0 0 92.8 144 256 124.8 76.8-9.6 118.4-54.4 140.8-89.6 32-64 41.6-153.6 12.8-230.4z" />
<glyph unicode="&#xe911;" glyph-name="instagram" d="M518.4 864c134.4 0 150.4 0 204.8-3.2 48-3.2 76.8-9.6 92.8-16 22.4-9.6 41.6-19.2 57.6-38.4 19.2-19.2 28.8-35.2 38.4-57.6 6.4-19.2 16-44.8 16-92.8 3.2-54.4 3.2-70.4 3.2-204.8s0-150.4-3.2-204.8c-3.2-48-9.6-76.8-16-92.8-9.6-22.4-19.2-41.6-38.4-57.6-19.2-19.2-35.2-28.8-57.6-38.4-19.2-6.4-44.8-16-92.8-16-54.4-3.2-70.4-3.2-204.8-3.2s-150.4 0-204.8 3.2c-48 3.2-76.8 9.6-92.8 16-22.4 9.6-41.6 19.2-57.6 38.4-19.2 19.2-28.8 35.2-38.4 57.6-6.4 19.2-16 44.8-16 92.8-3.2 54.4-3.2 70.4-3.2 204.8s0 150.4 3.2 204.8c3.2 48 9.6 76.8 16 92.8 9.6 22.4 19.2 41.6 38.4 57.6 16 16 32 25.6 57.6 35.2 19.2 6.4 44.8 16 92.8 16 54.4 3.2 70.4 6.4 204.8 6.4v0zM518.4 953.6c-137.6 0-153.6 0-208-3.2s-92.8-9.6-124.8-22.4c-32-12.8-60.8-32-89.6-57.6-25.6-28.8-44.8-57.6-57.6-89.6s-22.4-70.4-22.4-121.6c-3.2-54.4-3.2-70.4-3.2-208s0-153.6 3.2-208c3.2-54.4 9.6-89.6 22.4-121.6s28.8-60.8 57.6-89.6c28.8-32 57.6-51.2 89.6-64s70.4-22.4 121.6-22.4c54.4-3.2 70.4-3.2 208-3.2s153.6 0 208 3.2c54.4 3.2 89.6 9.6 121.6 22.4s60.8 28.8 89.6 57.6c28.8 28.8 44.8 57.6 57.6 89.6s22.4 70.4 22.4 121.6c9.6 57.6 9.6 73.6 9.6 211.2s0 153.6-3.2 208c-3.2 54.4-9.6 89.6-22.4 121.6-12.8 35.2-28.8 60.8-57.6 89.6s-57.6 48-89.6 60.8c-32 12.8-70.4 22.4-121.6 22.4-57.6 3.2-73.6 3.2-211.2 3.2v0 0zM518.4 707.2c-144 0-259.2-115.2-259.2-259.2s115.2-259.2 259.2-259.2 259.2 115.2 259.2 259.2c0 144-115.2 259.2-259.2 259.2zM518.4 278.4c-92.8 0-169.6 76.8-169.6 169.6s76.8 169.6 169.6 169.6 169.6-76.8 169.6-169.6-76.8-169.6-169.6-169.6zM848 716.8c0-32-25.6-60.8-60.8-60.8-32 0-60.8 25.6-60.8 60.8s25.6 60.8 60.8 60.8c35.2 0 60.8-25.6 60.8-60.8z" />
<glyph unicode="&#xe912;" glyph-name="linkedin" d="M380.8 611.2h188.8v-96h3.2c22.4 44.8 80 89.6 166.4 89.6 179.2 0 211.2-115.2 211.2-262.4v-300.8h-188.8v268.8c0 64 0 147.2-89.6 147.2s-102.4-70.4-102.4-144v-275.2h-188.8v572.8zM64 611.2h188.8v-569.6h-188.8v569.6zM246.4 761.6c0-51.2-41.6-96-96-96s-96 41.6-96 96 41.6 96 96 96 96-44.8 96-96z" />
<glyph unicode="&#xe913;" glyph-name="map" d="M499.2 307.2c3.2-3.2 9.6-6.4 12.8-6.4s9.6 3.2 12.8 6.4c6.4 6.4 195.2 185.6 195.2 403.2 0 108.8-54.4 227.2-208 227.2s-208-118.4-208-227.2c0-217.6 185.6-396.8 195.2-403.2zM512 899.2c153.6 0 169.6-131.2 169.6-188.8 0-166.4-124.8-313.6-169.6-361.6-44.8 44.8-169.6 195.2-169.6 361.6 0 54.4 16 188.8 169.6 188.8zM512 582.4c70.4 0 131.2 57.6 131.2 131.2 0 70.4-57.6 131.2-131.2 131.2s-131.2-57.6-131.2-131.2c0-73.6 60.8-131.2 131.2-131.2zM512 803.2c51.2 0 92.8-41.6 92.8-92.8s-41.6-92.8-92.8-92.8-92.8 41.6-92.8 92.8 41.6 92.8 92.8 92.8zM940.8 748.8c-3.2 3.2-9.6 6.4-16 3.2l-163.2-35.2c-6.4 0-9.6-3.2-12.8-9.6-3.2-3.2-3.2-9.6-3.2-16 3.2-9.6 12.8-16 22.4-16l137.6 32v-668.8l-188.8-41.6-204.8 44.8c-3.2 0-6.4 0-9.6 0l-204.8-44.8-188.8 41.6v672l137.6-32c9.6-3.2 19.2 3.2 22.4 16 9.6 9.6 3.2 19.2-6.4 22.4l-163.2 35.2c-6.4 0-12.8 0-16-3.2s-6.4-9.6-6.4-16v-710.4c0-9.6 6.4-16 16-19.2l208-44.8c3.2 0 6.4 0 9.6 0l204.8 44.8 204.8-44.8c0 0 3.2 0 3.2 0s3.2 0 3.2 0l208 44.8c9.6 3.2 16 9.6 16 19.2v710.4c-3.2 6.4-6.4 12.8-9.6 16z" />
<glyph unicode="&#xe914;" glyph-name="minus" d="M940.8 473.6h-857.6c-12.8 0-25.6-9.6-25.6-25.6s9.6-25.6 25.6-25.6h854.4c12.8 0 25.6 9.6 25.6 25.6s-9.6 25.6-22.4 25.6z" />
<glyph unicode="&#xe915;" glyph-name="phone" d="M899.2 265.6l-73.6 73.6c-32 32-86.4 32-118.4 0l-57.6-41.6c-19.2-12.8-38.4-19.2-60.8-12.8-124.8 28.8-198.4 166.4-233.6 246.4-9.6 25.6-6.4 51.2 9.6 73.6l35.2 44.8c32 32 32 86.4 0 118.4l-73.6 73.6c-28.8 28.8-76.8 32-108.8 6.4l-9.6-6.4c-76.8-57.6-115.2-153.6-105.6-246.4 12.8-92.8 54.4-233.6 195.2-374.4 89.6-89.6 185.6-150.4 284.8-176 25.6-6.4 51.2-9.6 76.8-9.6 92.8 0 179.2 41.6 236.8 115.2l3.2 6.4c32 32 28.8 80 0 108.8zM316.8 512c38.4-86.4 121.6-240 262.4-272 35.2-6.4 70.4 0 99.2 22.4l57.6 44.8 3.2 3.2c16 16 41.6 16 57.6 0l73.6-73.6c12.8-12.8 16-38.4 3.2-51.2l-9.6-9.6c-64-83.2-169.6-118.4-268.8-89.6-89.6 25.6-179.2 80-265.6 163.2-131.2 134.4-172.8 265.6-182.4 348.8-9.6 80 25.6 156.8 89.6 208l6.4 6.4c12.8 9.6 38.4 6.4 51.2-6.4l73.6-73.6c16-16 16-41.6 0-57.6l-38.4-48c-25.6-32-28.8-76.8-12.8-115.2z" />
<glyph unicode="&#xe916;" glyph-name="pinterest" d="M1004.8 448c0-272-220.8-492.8-492.8-492.8-48 0-96 6.4-140.8 19.2 19.2 28.8 38.4 67.2 51.2 105.6 0 0 6.4 22.4 35.2 134.4 16-32 67.2-60.8 118.4-60.8 156.8 0 265.6 144 265.6 339.2 0 144-124.8 281.6-310.4 281.6-233.6 0-352-166.4-352-307.2 0-83.2 32-160 99.2-188.8 9.6-3.2 22.4 0 25.6 12.8 3.2 9.6 6.4 28.8 9.6 38.4 3.2 12.8 3.2 16-6.4 28.8-19.2 22.4-32 54.4-32 96 0 124.8 92.8 236.8 243.2 236.8 131.2 0 204.8-80 204.8-188.8 0-140.8-64-262.4-156.8-262.4-51.2 0-89.6 41.6-76.8 96 16 60.8 44.8 128 44.8 172.8 0 41.6-22.4 73.6-67.2 73.6-51.2 0-96-54.4-96-128 0 0 0-48 16-76.8-54.4-227.2-64-268.8-64-268.8-9.6-38.4-9.6-80-9.6-112-172.8 76.8-294.4 249.6-294.4 451.2 0 272 220.8 492.8 492.8 492.8s492.8-220.8 492.8-492.8z" />
<glyph unicode="&#xe917;" glyph-name="plus" d="M940.8 473.6h-403.2v403.2c0 12.8-9.6 25.6-25.6 25.6s-25.6-9.6-25.6-25.6v-403.2h-403.2c-12.8 0-25.6-9.6-25.6-25.6s9.6-25.6 25.6-25.6h403.2v-403.2c0-12.8 9.6-25.6 25.6-25.6s25.6 9.6 25.6 25.6v403.2h403.2c12.8 0 25.6 9.6 25.6 25.6s-12.8 25.6-25.6 25.6z" />
<glyph unicode="&#xe918;" glyph-name="search" d="M950.4 124.8l-313.6 313.6c-19.2 19.2-51.2 19.2-70.4 0l-6.4-6.4-48 44.8c86.4 99.2 80 252.8-12.8 348.8-99.2 99.2-262.4 99.2-361.6 0s-99.2-262.4 0-361.6c48-48 112-73.6 182.4-73.6 60.8 0 118.4 22.4 166.4 60.8l44.8-44.8-6.4-6.4c-9.6-9.6-16-22.4-16-35.2s6.4-25.6 16-35.2l313.6-313.6c9.6-9.6 22.4-16 35.2-16s25.6 6.4 35.2 16l41.6 41.6c19.2 16 19.2 48 0 67.2zM550.4 368l22.4 22.4c0 0 0 0 0 0s0 0 0 0l22.4 22.4c3.2 3.2 3.2 3.2 6.4 3.2s3.2 0 6.4-3.2l313.6-313.6c3.2-3.2 3.2-3.2 3.2-6.4s0-3.2-3.2-6.4l-41.6-41.6c-3.2-3.2-9.6-3.2-12.8 0l-313.6 313.6c-6.4 0-6.4 6.4-3.2 9.6zM470.4 489.6c-41.6-41.6-96-64-153.6-64s-112 22.4-153.6 64c-83.2 83.2-83.2 220.8 0 304 41.6 41.6 96 64 153.6 64s112-22.4 153.6-64c83.2-80 83.2-217.6 0-304z" />
<glyph unicode="&#xe919;" glyph-name="shipping" d="M976 448l-92.8 147.2 92.8 153.6c3.2 6.4 3.2 12.8 0 19.2s-6.4 9.6-12.8 12.8l-348.8 92.8c-9.6 3.2-19.2 0-22.4-9.6l-80-134.4-83.2 134.4c-3.2 6.4-12.8 9.6-22.4 9.6l-348.8-102.4c-6.4 0-9.6-6.4-12.8-12.8-3.2-3.2 0-9.6 3.2-16l92.8-147.2-92.8-156.8c-3.2-6.4-3.2-12.8 0-19.2s6.4-9.6 12.8-12.8l86.4-22.4 3.2-252.8c0-9.6 6.4-16 16-19.2l345.6-89.6c3.2 0 3.2 0 6.4 0 0 0 0 0 0 0s0 0 0 0c3.2 0 3.2 0 6.4 0l345.6 99.2c9.6 3.2 16 9.6 16 19.2l-3.2 252.8 83.2 25.6c6.4 3.2 9.6 6.4 12.8 12.8 3.2 3.2 0 12.8-3.2 16zM512 521.6l-272 70.4 272 76.8 272-70.4-272-76.8zM620.8 832l307.2-83.2-76.8-128-307.2 83.2 76.8 128zM403.2 828.8l76.8-124.8-307.2-86.4-76.8 124.8 307.2 86.4zM172.8 569.6l307.2-80-76.8-128-307.2 80 76.8 128zM185.6 377.6l224-57.6c3.2 0 3.2 0 6.4 0 6.4 0 12.8 3.2 16 9.6l60.8 102.4 3.2-361.6-310.4 80v227.2zM844.8 156.8l-307.2-86.4-3.2 361.6 64-102.4c3.2-6.4 9.6-9.6 16-9.6 3.2 0 3.2 0 6.4 0l220.8 64 3.2-227.2zM620.8 361.6l-76.8 128 307.2 86.4 80-124.8-310.4-89.6z" />
<glyph unicode="&#xe91a;" glyph-name="snowflake" d="M937.6 387.2l-192-51.2-67.2 38.4 48 25.6c9.6 6.4 12.8 16 6.4 25.6s-16 12.8-25.6 6.4l-67.2-35.2-89.6 51.2 86.4 51.2 67.2-35.2c3.2 0 6.4-3.2 9.6-3.2 6.4 0 12.8 3.2 16 9.6 6.4 9.6 0 19.2-6.4 25.6l-48 25.6 67.2 38.4 192-51.2c3.2 0 3.2 0 6.4 0 9.6 0 16 6.4 19.2 12.8 3.2 9.6-3.2 19.2-12.8 22.4l-156.8 41.6 137.6 80c9.6 6.4 12.8 16 6.4 25.6s-19.2 12.8-25.6 6.4l-137.6-80 41.6 156.8c3.2 9.6-3.2 22.4-12.8 25.6s-19.2-3.2-22.4-12.8l-51.2-192-67.2-38.4 3.2 54.4c0 9.6-6.4 19.2-19.2 19.2-9.6 0-19.2-6.4-19.2-19.2l-3.2-76.8-89.6-54.4v99.2l64 41.6c9.6 6.4 12.8 16 6.4 25.6s-16 12.8-25.6 6.4l-44.8-28.8v80l140.8 140.8c6.4 6.4 6.4 19.2 0 25.6s-19.2 6.4-25.6 0l-115.2-115.2v160c0 9.6-9.6 19.2-19.2 19.2s-19.2-9.6-19.2-19.2v-156.8l-115.2 115.2c-6.4 6.4-19.2 6.4-25.6 0s-6.4-19.2 0-25.6l140.8-144v-80l-44.8 32c-9.6 6.4-19.2 3.2-25.6-6.4s-3.2-19.2 6.4-25.6l64-41.6v-102.4l-86.4 51.2-3.2 76.8c0 9.6-9.6 19.2-19.2 19.2s-19.2-9.6-19.2-19.2l3.2-54.4-67.2 38.4-51.2 192c-6.4 9.6-16 16-25.6 16-9.6-3.2-16-16-12.8-25.6l41.6-156.8-137.6 80c-6.4 6.4-19.2 3.2-25.6-6.4-3.2-9.6 0-19.2 6.4-25.6l137.6-80-156.8-41.6c-9.6 0-16-12.8-12.8-22.4s9.6-12.8 19.2-12.8c3.2 0 3.2 0 6.4 0l192 51.2 67.2-38.4-48-25.6c-9.6-6.4-12.8-16-6.4-25.6 3.2-6.4 9.6-9.6 16-9.6 3.2 0 6.4 0 9.6 3.2l67.2 35.2 86.4-51.2-86.4-51.2-67.2 38.4c-9.6 6.4-19.2 0-25.6-6.4-6.4-9.6 0-19.2 6.4-25.6l48-25.6-67.2-38.4-192 51.2c-12.8 0-22.4-6.4-25.6-16s3.2-22.4 12.8-22.4l156.8-41.6-137.6-80c-9.6-6.4-12.8-16-6.4-25.6 3.2-6.4 9.6-9.6 16-9.6 3.2 0 6.4 0 9.6 3.2l137.6 80-41.6-156.8c-3.2-9.6 3.2-22.4 12.8-25.6 3.2 0 3.2 0 6.4 0 9.6 0 16 6.4 19.2 12.8l51.2 192 67.2 38.4-3.2-51.2c0-9.6 6.4-19.2 19.2-19.2 0 0 0 0 0 0 9.6 0 19.2 6.4 19.2 19.2l3.2 76.8 86.4 51.2v-99.2l-64-41.6c-9.6-6.4-12.8-16-6.4-25.6 3.2-6.4 9.6-9.6 16-9.6 3.2 0 6.4 0 9.6 3.2l44.8 28.8v-80l-140.8-140.8c-6.4-6.4-6.4-19.2 0-25.6 3.2-3.2 9.6-6.4 12.8-6.4 6.4 0 9.6 3.2 12.8 6.4l115.2 115.2v-156.8c0-9.6 9.6-19.2 19.2-19.2s19.2 9.6 19.2 19.2v156.8l115.2-115.2c3.2-3.2 9.6-6.4 12.8-6.4 6.4 0 9.6 3.2 12.8 6.4 6.4 6.4 6.4 19.2 0 25.6l-140.8 140.8v80l44.8-28.8c3.2-3.2 6.4-3.2 9.6-3.2 6.4 0 12.8 3.2 16 9.6 6.4 9.6 3.2 19.2-6.4 25.6l-64 41.6v99.2l86.4-51.2 3.2-76.8c0-9.6 9.6-19.2 19.2-19.2 0 0 0 0 0 0 9.6 0 19.2 9.6 19.2 19.2l-3.2 54.4 67.2-38.4 51.2-192c3.2-9.6 9.6-12.8 19.2-12.8 3.2 0 3.2 0 6.4 0 9.6 3.2 16 12.8 12.8 22.4l-41.6 156.8 137.6-80c3.2-3.2 6.4-3.2 9.6-3.2 6.4 0 12.8 3.2 16 9.6 6.4 9.6 3.2 19.2-6.4 25.6l-137.6 80 156.8 41.6c9.6 3.2 16 12.8 12.8 22.4s-12.8 16-22.4 12.8z" />
<glyph unicode="&#xe91b;" glyph-name="store" d="M300.8 342.4c-9.6 0-16-6.4-16-16v-70.4c0-9.6 6.4-16 16-16s16 6.4 16 16v67.2c0 9.6-9.6 19.2-16 19.2zM966.4 499.2c0 0 0 0 0 0s0 0 0 0l-124.8 284.8h-649.6l-134.4-284.8c0 0 0 0 0 0s0 0 0-3.2c0 0 0-3.2 0-3.2s0 0 0 0c0-41.6 32-73.6 70.4-83.2v-300.8h777.6v304c38.4 9.6 64 41.6 64 80 0 0 0 0 0 0-3.2 3.2-3.2 3.2-3.2 6.4zM160 409.6c25.6 3.2 44.8 16 60.8 35.2 3.2-6.4 9.6-12.8 16-16v-288h-76.8v268.8zM268.8 140.8v272c6.4-3.2 16-3.2 25.6-3.2 28.8 0 57.6 16 73.6 35.2 16-22.4 41.6-35.2 70.4-35.2v-268.8h-169.6zM790.4 492.8c0-28.8-25.6-51.2-57.6-51.2-6.4 0-9.6 0-16 3.2-25.6 3.2-44.8 25.6-44.8 48 0 0 0 0 0 0s0 0 0 0 0 0 0 0l-25.6 259.2h89.6l54.4-259.2zM640 492.8c0-28.8-25.6-51.2-57.6-51.2s-57.6 22.4-57.6 54.4v259.2h86.4l28.8-262.4zM496 496c0-28.8-25.6-54.4-57.6-54.4s-57.6 22.4-57.6 51.2l25.6 259.2h86.4l3.2-256zM348.8 496c0 0 0 0 0 0 0-28.8-25.6-54.4-57.6-54.4s-54.4 22.4-57.6 51.2l54.4 262.4h86.4l-25.6-259.2c0 0 0 0 0 0zM256 755.2l-51.2-256c0 0 0 0 0-3.2 0 0 0 0 0 0 0-28.8-25.6-54.4-57.6-54.4s-57.6 22.4-57.6 51.2l121.6 262.4h44.8zM467.2 416c16 6.4 32 16 41.6 32 16-22.4 41.6-35.2 73.6-35.2s57.6 16 73.6 38.4c12.8-16 28.8-28.8 51.2-35.2 6.4-3.2 16-3.2 22.4-3.2 32 0 57.6 16 73.6 35.2 16-19.2 38.4-35.2 67.2-35.2v-268.8h-403.2v272zM819.2 492.8c0 0 0 0 0 0 0 3.2 0 3.2 0 0 0 3.2 0 3.2 0 3.2l-54.4 256h54.4l115.2-262.4c0-28.8-25.6-51.2-57.6-51.2-28.8 3.2-57.6 25.6-57.6 54.4z" />
<glyph unicode="&#xe91c;" glyph-name="time" d="M512 937.6c-272 0-489.6-217.6-489.6-489.6s217.6-489.6 489.6-489.6 489.6 217.6 489.6 489.6-217.6 489.6-489.6 489.6zM512 0c-246.4 0-448 201.6-448 448s201.6 448 448 448 448-201.6 448-448-201.6-448-448-448zM524.8 464c-3.2 3.2-3.2 6.4-3.2 9.6v275.2c0 12.8-9.6 22.4-22.4 22.4s-22.4-9.6-22.4-22.4v-275.2c0-16 6.4-28.8 16-41.6l236.8-236.8c3.2-3.2 9.6-6.4 16-6.4s9.6 3.2 16 6.4c9.6 9.6 9.6 22.4 0 32l-236.8 236.8z" />
<glyph unicode="&#xe91d;" glyph-name="twitter" d="M1008 764.8c-38.4-16-76.8-28.8-118.4-32 41.6 25.6 76.8 67.2 92.8 115.2-41.6-22.4-83.2-41.6-131.2-51.2-44.8 48-108.8 73.6-179.2 64-102.4-12.8-182.4-105.6-179.2-211.2 0-12.8 3.2-28.8 6.4-41.6-176 9.6-329.6 92.8-432 217.6-19.2-32-28.8-67.2-28.8-105.6 0-70.4 35.2-134.4 92.8-172.8-35.2 0-67.2 9.6-92.8 25.6 0 0 0-3.2 0-3.2 0-99.2 70.4-185.6 166.4-204.8-16-3.2-35.2-6.4-54.4-6.4-12.8 0-25.6 0-38.4 3.2 25.6-83.2 102.4-144 195.2-144-70.4-54.4-160-89.6-259.2-89.6-16 0-32 0-51.2 3.2 92.8-57.6 201.6-92.8 320-92.8 380.8 0 592 316.8 592 592 0 9.6 0 19.2 0 25.6 38.4 32 73.6 67.2 99.2 108.8v0z" />
<glyph unicode="&#xe91e;" glyph-name="youtube" d="M1008 649.6c0 0-9.6 70.4-41.6 99.2-38.4 41.6-83.2 41.6-102.4 41.6-140.8 12.8-352 12.8-352 12.8v0c0 0-211.2 0-355.2-9.6-19.2-3.2-60.8-3.2-99.2-41.6-32-32-41.6-99.2-41.6-99.2s-9.6-83.2-9.6-163.2v-76.8c0-83.2 9.6-163.2 9.6-163.2s9.6-70.4 41.6-99.2c38.4-41.6 89.6-38.4 112-44.8 80-12.8 342.4-12.8 342.4-12.8s211.2 0 355.2 9.6c19.2 3.2 64 3.2 102.4 41.6 32 32 41.6 99.2 41.6 99.2s9.6 83.2 9.6 163.2v76.8c-3.2 86.4-12.8 166.4-12.8 166.4v0zM416 323.2v284.8l272-144c3.2 3.2-272-140.8-272-140.8z" />
<glyph unicode="&#xe91f;" glyph-name="pin-circle" d="M512 934.4c-217.6 0-393.6-176-393.6-393.6 0-102.4 41.6-201.6 112-275.2l252.8-291.2c6.4-6.4 16-12.8 25.6-12.8s19.2 3.2 25.6 12.8l252.8 291.2c73.6 73.6 112 172.8 112 275.2 6.4 217.6-169.6 393.6-387.2 393.6zM761.6 294.4l-249.6-284.8-249.6 284.8c-64 64-99.2 153.6-99.2 246.4 0 192 156.8 348.8 348.8 348.8s348.8-156.8 348.8-348.8c0-92.8-35.2-179.2-99.2-246.4zM512 742.4c-105.6 0-195.2-86.4-195.2-195.2 0-105.6 86.4-195.2 195.2-195.2s195.2 86.4 195.2 195.2-89.6 195.2-195.2 195.2zM512 396.8c-83.2 0-150.4 67.2-150.4 150.4s67.2 150.4 150.4 150.4 150.4-67.2 150.4-150.4-67.2-150.4-150.4-150.4z" />
<glyph unicode="&#xe920;" glyph-name="pin-fill" d="M512 912c-204.8 0-371.2-166.4-371.2-371.2 0-99.2 38.4-192 105.6-259.2l252.8-291.2c3.2-3.2 6.4-6.4 9.6-6.4s9.6 3.2 9.6 6.4l252.8 291.2c70.4 70.4 105.6 163.2 105.6 262.4 6.4 201.6-160 368-364.8 368z" />
<glyph unicode="&#xe921;" glyph-name="pin-outline" d="M515.2 934.4c-217.6 0-393.6-176-393.6-393.6 0-102.4 41.6-201.6 112-275.2l252.8-291.2c6.4-6.4 16-12.8 25.6-12.8s19.2 3.2 25.6 12.8l252.8 291.2c73.6 73.6 112 172.8 112 275.2 6.4 217.6-169.6 393.6-387.2 393.6zM761.6 294.4l-246.4-284.8-249.6 284.8c-64 64-99.2 153.6-99.2 246.4 0 192 156.8 348.8 348.8 348.8s348.8-156.8 348.8-348.8c0-92.8-35.2-179.2-102.4-246.4z" />
<glyph unicode="&#xe922;" glyph-name="double-arrow-l" d="M377.6 422.4l464-358.4c6.4-6.4 22.4-6.4 28.8 3.2s6.4 25.6-3.2 32l-448 348.8 448 348.8c9.6 6.4 9.6 22.4 3.2 32-3.2 6.4-9.6 9.6-16 9.6-3.2 0-9.6 0-12.8-3.2l-460.8-358.4c-6.4-6.4-12.8-16-12.8-25.6s3.2-22.4 9.6-28.8zM160 422.4l464-358.4c6.4-6.4 22.4-6.4 28.8 3.2s6.4 25.6-3.2 32l-448 348.8 448 348.8c9.6 6.4 9.6 22.4 3.2 32-3.2 6.4-9.6 9.6-16 9.6-3.2 0-9.6 0-12.8-3.2l-460.8-358.4c-6.4-6.4-12.8-16-12.8-25.6s3.2-22.4 9.6-28.8z" />
<glyph unicode="&#xe923;" glyph-name="double-arrow-r" d="M646.4 473.6l-464 358.4c-6.4 6.4-22.4 6.4-28.8-3.2s-6.4-25.6 3.2-32l448-348.8-448-348.8c-9.6-6.4-9.6-22.4-3.2-32 3.2-6.4 9.6-9.6 16-9.6 3.2 0 9.6 0 12.8 3.2l460.8 358.4c6.4 6.4 12.8 16 12.8 25.6s-3.2 22.4-9.6 28.8zM864 473.6l-464 358.4c-6.4 6.4-22.4 6.4-28.8-3.2s-6.4-25.6 3.2-32l448-348.8-448-348.8c-9.6-6.4-9.6-22.4-3.2-32 3.2-6.4 9.6-9.6 16-9.6 3.2 0 9.6 0 12.8 3.2l460.8 358.4c6.4 6.4 12.8 16 12.8 25.6s-3.2 22.4-9.6 28.8z" />
<glyph unicode="&#xe924;" glyph-name="share" d="M789.12 354.88c-62.678-0.106-118.106-31.052-151.934-78.47l-0.386-0.57-224 113.6c6.087 17.468 9.603 37.603 9.603 58.56s-3.516 41.092-9.99 59.849l0.387-1.289 224 113.6c34.216-47.951 89.661-78.841 152.32-78.841 103.034 0 186.56 83.526 186.56 186.56s-83.526 186.56-186.56 186.56c-103.034 0-186.56-83.526-186.56-186.56 0-0.070 0-0.139 0-0.209v0.011c-0.001-0.252-0.002-0.55-0.002-0.848 0-20.664 3.516-40.507 9.983-58.962l-0.381 1.25-224-113.6c-34.205 48.065-89.715 79.040-152.46 79.040-103.034 0-186.56-83.526-186.56-186.56s83.526-186.56 186.56-186.56c62.745 0 118.255 30.975 152.073 78.468l0.387 0.572 224-113.6c-6.086-17.206-9.602-37.049-9.602-57.712 0-0.298 0.001-0.596 0.002-0.894v0.046c0-103.034 83.526-186.56 186.56-186.56s186.56 83.526 186.56 186.56c0 103.034-83.526 186.56-186.56 186.56v0zM789.12 859.52c72.813 0 131.84-59.027 131.84-131.84s-59.027-131.84-131.84-131.84c-72.813 0-131.84 59.027-131.84 131.84v0c0 72.813 59.027 131.84 131.84 131.84v0zM234.88 315.52c-72.813 0.001-131.838 59.027-131.838 131.84s59.027 131.84 131.84 131.84c72.588 0 131.475-58.663 131.838-131.165v-0.035c0-72.813-59.027-131.84-131.84-131.84v0zM789.12 35.84c-0.095 0-0.207 0-0.32 0-72.813 0-131.84 59.027-131.84 131.84s59.027 131.84 131.84 131.84c72.813 0 131.84-59.027 131.84-131.84v0c-0.541-72.353-59.141-130.84-131.485-131.2h-0.035z" />
<glyph unicode="&#xe925;" glyph-name="cocktail-glass-2" horiz-adv-x="948" d="M473.83 388.771c-4.162-0.451-8.99-0.708-13.877-0.708-56.172 0-104.411 33.966-125.3 82.479l-0.339 0.886c-0.142 0.87-0.222 1.874-0.222 2.896s0.081 2.025 0.237 3.004l-0.014-0.108-3.159 109.507c-3.217-0.11-6.998-0.173-10.793-0.173-96.441 0-183.433 40.454-244.933 105.317l-0.142 0.151c-47.853 59.050-76.827 135.101-76.827 217.919 0 11.509 0.56 22.887 1.653 34.109l-0.112-1.424c1.568 9.806 9.899 17.23 19.991 17.374h906.084c10.107-0.143 18.438-7.568 19.991-17.256l0.016-0.117c1.323-11.385 2.078-24.577 2.078-37.945 0-81.636-28.153-156.697-75.279-216.004l0.547 0.713c-61.642-65.015-148.634-105.468-245.075-105.468-3.796 0-7.576 0.063-11.342 0.187l0.548-0.014-3.159-109.507c0.142-0.87 0.222-1.874 0.222-2.896s-0.081-2.025-0.237-3.004l0.014 0.108c-21.77-48.101-69.347-80.963-124.599-80.963-5.628 0-11.177 0.341-16.626 1.003l0.655-0.065zM373.273 480.905c17.12-31.987 50.305-53.379 88.486-53.379 4.255 0 8.447 0.266 12.562 0.781l-0.491-0.050c3.445-0.416 7.435-0.654 11.48-0.654 38.329 0 71.675 21.332 88.813 52.772l0.264 0.53 4.738 124.775c0.294 10.82 9.135 19.48 19.999 19.48 0.002 0 0.005 0 0.007 0v0c7.052-0.572 15.266-0.898 23.556-0.898 85.873 0 163.579 34.965 219.659 91.434l0.017 0.017c40.364 50.716 64.762 115.707 64.762 186.396 0 6.289-0.193 12.533-0.574 18.727l0.042-0.849h-866.583c-0.3-5.024-0.471-10.899-0.471-16.813 0-71.19 24.789-136.59 66.206-188.040l-0.451 0.58c56.27-56.564 134.163-91.571 220.233-91.571 8.837 0 17.587 0.369 26.237 1.092l-1.131-0.076c0.002 0 0.004 0 0.007 0 10.864 0 19.705-8.659 19.999-19.453l0.001-0.027zM473.83-63.474c-0.002 0-0.004 0-0.007 0-10.864 0-19.705 8.659-19.999 19.453l-0.001 0.027v452.771c0 11.049 8.957 20.006 20.006 20.006s20.006-8.957 20.006-20.006v-452.771c-0.294-10.82-9.135-19.48-19.999-19.48-0.002 0-0.005 0-0.007 0v0zM714.957-63.474h-482.254c-0.972-0.167-2.092-0.263-3.235-0.263-11.049 0-20.006 8.957-20.006 20.006s8.957 20.006 20.006 20.006c1.142 0 2.262-0.096 3.352-0.28l-0.118 0.016h482.254c0.972 0.167 2.092 0.263 3.235 0.263 11.049 0 20.006-8.957 20.006-20.006s-8.957-20.006-20.006-20.006c-1.142 0-2.262 0.096-3.352 0.28l0.118-0.016zM598.079 585.148h-248.498c-11.049 0-20.006 8.957-20.006 20.006s8.957 20.006 20.006 20.006h248.498c11.049 0 20.006-8.957 20.006-20.006s-8.957-20.006-20.006-20.006v0z" />
<glyph unicode="&#xe926;" glyph-name="cocktail-glass" horiz-adv-x="460" d="M431.087-64h-406.243l4.365 16.115c5.372 18.801 38.61 26.859 106.093 37.267l16.451 2.686h10.072l14.437 2.686c-12.188 7.317-20.998 19.202-24.109 33.23l-0.064 0.344c-0.012 0.468-0.019 1.018-0.019 1.57 0 17.805 7.333 33.897 19.144 45.42l0.013 0.013c2.014 2.35 4.365 6.043 3.693 8.729s-4.029 6.043-5.372 7.050l13.094 21.487c8.62-5.222 14.852-13.65 17.076-23.591l0.046-0.246c0.262-1.622 0.412-3.492 0.412-5.396 0-9.172-3.47-17.534-9.168-23.844l0.028 0.031c-7.386-9.401-15.108-19.809-14.101-27.53s6.379-11.751 16.115-18.466c4.365-3.022 17.794-12.087 14.772-25.18s-22.159-18.13-41.967-21.487l-9.065-1.679-17.794-2.686-19.809-3.357h217.558l-19.809 3.357-17.794 2.686-9.065 1.679c-19.809 3.357-38.61 6.379-41.967 21.487s10.408 22.159 14.772 25.18c9.736 6.715 15.108 12.758 16.115 18.466s-6.715 18.13-14.101 27.53c-5.671 6.279-9.141 14.641-9.141 23.813 0 1.905 0.15 3.774 0.438 5.598l-0.026-0.202c2.271 10.187 8.503 18.615 16.958 23.745l0.164 0.093 12.758-21.823-6.379 11.079 6.715-10.744s-5.036-3.693-5.372-7.050 0-6.379 3.693-8.729c11.824-11.536 19.156-27.628 19.156-45.433 0-0.552-0.007-1.103-0.021-1.651l0.002 0.081c-3.175-14.372-11.985-26.256-23.94-33.444l-0.234-0.13 14.437-2.686h10.072l16.451-2.686c67.148-10.408 100.721-18.466 106.093-37.267zM227.294 88.425c-4.671-0.382-10.111-0.6-15.602-0.6-59.29 0-112.646 25.403-149.78 65.918l-0.137 0.151c-63.119 76.212-48.682 193.385-42.639 226.959l5.372 29.545c19.472 91.654 33.392 199.753 38.759 310.098l0.187 4.824c-4.010 79.163-23.647 152.827-55.866 219.254l1.477-3.375-9.065 18.801 227.294-4.365 231.995 4.365-10.072-19.137c-32.861-62.711-53.952-136.36-58.355-214.469l-0.063-1.41c5.839-115.384 20.229-223.529 42.691-328.683l-2.402 13.425 5.036-29.209c6.043-33.574 20.48-150.41-43.646-226.623-36.994-40.674-90.13-66.103-149.206-66.103-5.623 0-11.193 0.23-16.7 0.682l0.723-0.048zM40.289 933.812c28.114-61.262 45.745-132.629 48.65-207.772l0.032-1.057c-5.519-116.759-19.682-226.475-41.991-333.199l2.374 13.577-5.372-29.209c-5.372-31.224-18.801-137.988 38.274-205.807 32.908-36.016 80.081-58.521 132.51-58.521 4.409 0 8.78 0.159 13.109 0.472l-0.58-0.034c4.044-0.325 8.754-0.511 13.508-0.511 51.777 0 98.418 21.99 131.093 57.139l0.102 0.111c57.075 67.148 43.646 174.584 38.274 205.807l-5.036 28.873c-20.674 93.6-35.427 203.813-41.1 316.42l-0.196 4.881c3.665 76.658 23.098 147.964 55.103 211.883l-1.385-3.054-183.313-3.693h-14.437z" />
<glyph unicode="&#xe927;" glyph-name="collins-glass" horiz-adv-x="346" d="M321.818-64h-298.325c-8.088 0.138-14.708 6.242-15.655 14.094l-0.008 0.077-7.831 992.303c-0.106 0.675-0.166 1.454-0.166 2.247 0 8.444 6.845 15.289 15.289 15.289 0.19 0 0.378-0.003 0.566-0.010l-0.027 0.001h315.851c0.016 0 0.035 0 0.054 0 4.58 0 8.689-2.014 11.491-5.204l0.015-0.017c2.582-2.887 4.161-6.718 4.161-10.919 0-0.488-0.021-0.971-0.063-1.449l0.004 0.062-7.831-992.303c-1.117-8.071-7.971-14.219-16.261-14.219-0.445 0-0.887 0.018-1.323 0.053l0.058-0.004zM37.664-32.303h269.984l4.475 960.606h-278.934zM301.308 37.803h-257.305c-7.745 1.225-13.597 7.853-13.597 15.849s5.852 14.624 13.506 15.837l0.091 0.012h257.305c0.733 0.119 1.578 0.186 2.438 0.186 8.856 0 16.035-7.179 16.035-16.035s-7.179-16.035-16.035-16.035c-0.861 0-1.705 0.068-2.529 0.198l0.091-0.012z" />
<glyph unicode="&#xe928;" glyph-name="coupe-glass" horiz-adv-x="854" d="M850.253 960h-846.967c-2.363-17.902-3.712-38.602-3.712-59.618 0-63.258 12.222-123.661 34.433-178.977l-1.147 3.235c43.95-106.384 142.12-233.717 359.817-243.986v-476.47h-212.358c-18.829 0-34.092-15.264-34.092-34.092s15.264-34.092 34.092-34.092h492.9c18.829 0 34.092 15.264 34.092 34.092s-15.264 34.092-34.092 34.092h-212.358v476.47c217.698 11.912 315.867 137.601 359.817 244.396 21.076 51.95 33.306 112.209 33.306 175.326 0 21.018-1.356 41.72-3.986 62.021l0.254-2.398zM757.423 750.928c-55.451-136.78-166.354-203.321-330.654-203.321s-275.203 66.542-328.6 203.321c-17.216 41.689-27.306 90.080-27.52 140.802v0.085h714.294c-0.215-50.807-10.304-99.199-28.445-143.436l0.925 2.549z" />
<glyph unicode="&#xe929;" glyph-name="filled-martini-glass" horiz-adv-x="987" d="M493.256 369.898c-8.167 0.002-15.489 3.619-20.452 9.339l-0.028 0.034-465.486 535.257c-4.212 4.797-6.782 11.126-6.782 18.055 0 14.967 11.99 27.133 26.889 27.417h931.693c14.925-0.285 26.915-12.451 26.915-27.418 0-6.929-2.57-13.258-6.809-18.086l0.027 0.031-465.486-535.257c-4.991-5.753-12.313-9.37-20.48-9.372v0zM87.474 905.155l405.782-465.833 405.782 465.833zM493.256-64c-15.145 0-27.422 12.277-27.422 27.422v0 433.898c0 15.145 12.277 27.422 27.422 27.422s27.422-12.277 27.422-27.422v0-433.898c0-15.145-12.277-27.422-27.422-27.422v0zM721.66-64h-456.808c-15.145 0-27.422 12.277-27.422 27.422s12.277 27.422 27.422 27.422h456.808c15.145 0 27.422-12.277 27.422-27.422s-12.277-27.422-27.422-27.422v0zM753.247 668.767h-520.678c-15.145 0-27.422 12.277-27.422 27.422s12.277 27.422 27.422 27.422v0h520.678c15.145 0 27.422-12.277 27.422-27.422s-12.277-27.422-27.422-27.422v0z" />
<glyph unicode="&#xe92a;" glyph-name="flute-glass" horiz-adv-x="307" d="M153.096 369.773c-57.856 5.723-105.713 43.256-126.213 94.663l-0.36 1.022c-36.931 83.934 6.379 439.481 11.415 479.769 1.187 8.333 8.232 14.683 16.778 14.772h195.408c8.555-0.090 15.6-6.439 16.776-14.681l0.011-0.091c5.036-40.289 48.346-395.835 11.415-479.769-20.656-52.069-67.917-89.465-124.557-95.626l-0.673-0.059zM70.169 926.426c-14.101-116.837-39.281-386.098-12.422-447.538 15.753-40.193 51.526-69.373 94.716-75.468l0.633-0.073c43.794 6.239 79.536 35.39 95.067 74.729l0.283 0.812c26.859 61.44 1.679 330.702-12.422 447.538zM153.096-64c-9.271 0-16.787 7.516-16.787 16.787v0 433.773c0 9.271 7.516 16.787 16.787 16.787s16.787-7.516 16.787-16.787v0-433.773c0-9.271-7.516-16.787-16.787-16.787v0zM289.406-64h-272.619c-9.271 0-16.787 7.516-16.787 16.787s7.516 16.787 16.787 16.787v0h272.619c9.271 0 16.787-7.516 16.787-16.787s-7.516-16.787-16.787-16.787v0z" />
<glyph unicode="&#xe92b;" glyph-name="martini-glass" horiz-adv-x="885" d="M442.082 484.559c-5.834 0.024-11.091 2.474-14.818 6.393l-0.008 0.009-421.528 433.995c-3.621 3.848-5.845 9.046-5.845 14.763 0 2.811 0.538 5.496 1.516 7.959l-0.051-0.146c3.222 7.394 10.467 12.47 18.897 12.47 0.109 0 0.217-0.001 0.325-0.003h842.366c0.092 0.001 0.2 0.002 0.309 0.002 8.43 0 15.675-5.075 18.846-12.337l0.052-0.132c0.927-2.317 1.465-5.002 1.465-7.813 0-5.717-2.225-10.915-5.856-14.774l0.010 0.011-420.854-433.658c-3.688-4.053-8.946-6.622-14.805-6.739h-0.021zM69.412 918.892l372.67-383.789 372.67 383.789zM442.082-64c-11.352 0-20.554 9.202-20.554 20.554v0 548.896c0 11.352 9.202 20.554 20.554 20.554s20.554-9.202 20.554-20.554v-548.896c0-11.352-9.202-20.554-20.554-20.554v0zM624.037-64h-363.909c-11.352 0-20.554 9.202-20.554 20.554v0c-0.002 0.1-0.003 0.218-0.003 0.337 0 11.352 9.202 20.554 20.554 20.554 0.001 0 0.002 0 0.003 0h363.909c0.001 0 0.002 0 0.003 0 11.352 0 20.554-9.202 20.554-20.554 0-0.118-0.001-0.237-0.003-0.355v0.018c0-11.352-9.202-20.554-20.554-20.554v0z" />
<glyph unicode="&#xe92c;" glyph-name="mug" horiz-adv-x="1504" d="M950.020-64h-616.496c-7.846 0.163-14.959 3.175-20.373 8.040l0.029-0.026c-315.646 314.413-315.646 959.884-315.646 987.627 1.553 14.676 13.865 26.011 28.823 26.011 0.922 0 1.833-0.043 2.733-0.127l-0.115 0.009h1228.060c0.002 0 0.004 0 0.007 0 15.786 0 28.623-12.624 28.968-28.327l0.001-0.032c0-27.742 5.548-673.214-315.646-986.394-5.16-4.238-11.832-6.807-19.103-6.807-0.437 0-0.871 0.009-1.303 0.028l0.062-0.002zM348.32-6.049h589.987c258.312 263.86 286.671 778.635 292.219 908.099h-1171.343c0-129.464 30.825-644.855 289.137-908.099zM1150.382 129.58c-0.819-0.024-1.782-0.037-2.748-0.037-26.512 0-50.67 10.082-68.848 26.621l0.083-0.074c-5.66 5.341-9.184 12.894-9.184 21.269 0 16.138 13.082 29.22 29.22 29.22 7.762 0 14.818-3.027 20.050-7.964l-0.014 0.013c15.412-14.796 68.431-12.33 134.396 22.194 107.887 56.101 208.376 169.536 189.881 296.535-4.369 59.78-33.050 112.106-76.090 147.674l-0.356 0.285c-26.874 18.217-60.019 29.083-95.702 29.083-7.555 0-14.997-0.487-22.295-1.432l0.862 0.091c-1.616-0.32-3.474-0.503-5.375-0.503-14.22 0-26.047 10.243-28.506 23.753l-0.027 0.177c-0.205 1.322-0.322 2.846-0.322 4.398 0 14.395 10.068 26.438 23.547 29.471l0.202 0.038c9.788 1.488 21.083 2.338 32.575 2.338 48.184 0 92.879-14.94 129.704-40.44l-0.757 0.496c55.758-44.274 93.082-109.682 99.797-183.922l0.075-1.027c22.81-154.741-94.324-290.37-220.089-355.718-37.151-23.202-81.473-38.501-129.014-42.467l-1.066-0.072z" />
<glyph unicode="&#xe92d;" glyph-name="pitcher" horiz-adv-x="709" d="M399.757-4.515c-170.535 0.242-308.687 138.543-308.687 309.112 0 37.993 6.854 74.384 19.393 108.006l-0.698-2.135c3.296 9.361 6.524 16.96 10.144 24.331l-0.584-1.316 30.097 70.816c38.708 90.471 61.225 195.741 61.256 306.267v132.792c0 9.191 7.451 16.642 16.642 16.642v0h445.787c0.001 0 0.002 0 0.004 0 9.262 0 16.794-7.409 16.992-16.623v-0.018c0-0.062 0-0.135 0-0.208 0-58.633-43.716-107.055-100.331-114.452l-0.582-0.062v-17.704c0-0.315-0.001-0.689-0.001-1.062 0-110.172 22.523-215.083 63.216-310.38l-1.96 5.163 30.097-70.816c3.187-7.082 6.728-14.517 9.56-22.307v0c11.886-31.366 18.767-67.63 18.767-105.501 0-0.254 0-0.508-0.001-0.762v0.039c0.001-0.21 0.001-0.459 0.001-0.708 0-170.718-138.394-309.112-309.112-309.112 0 0 0 0-0.001 0v0zM243.961 926.362v-114.722c-0.010-115.009-23.441-224.543-65.784-324.095l2.049 5.423-30.451-70.816c-3.187-7.082-6.019-13.809-8.498-20.891-10.763-28.061-16.996-60.522-16.996-94.439 0-0.16 0-0.319 0-0.479v0.025c0-152.14 123.334-275.474 275.474-275.474s275.474 123.334 275.474 275.474v0c0.003 0.435 0.004 0.95 0.004 1.465 0 33.54-6.104 65.654-17.261 95.293l0.616-1.864q-3.895 10.268-8.498 20.183l-30.451 72.941c-40.3 93.728-63.735 202.826-63.735 317.397 0 0.449 0 0.897 0.001 1.345v-0.070 35.408c0 9.191 7.451 16.642 16.642 16.642v0h1.77c0.007 0 0.015 0 0.023 0 38.957 0 71.526 27.354 79.546 63.903l0.099 0.539zM125.344 388.16c-0.957-0.237-2.056-0.373-3.187-0.373s-2.23 0.136-3.281 0.392l0.094-0.019c-6.031 2.59-10.178 8.478-10.178 15.335 0 1.6 0.226 3.147 0.647 4.611l-0.029-0.117c0 2.833 0 28.68-38.241 106.224l-14.517 31.159c-46.030 85.333-89.228 167.48-20.891 262.373 16.85 25.611 43.903 43.329 75.24 47.39l0.533 0.056c49.484-1.030 94.125-20.949 127.172-52.813l-0.057 0.055c3.251-3.068 5.275-7.405 5.275-12.216 0-9.269-7.514-16.782-16.782-16.782-4.458 0-8.51 1.738-11.516 4.574l0.008-0.008c-26.344 25.343-61.532 41.661-100.493 43.887l-0.42 0.019c-22.192-2.972-40.954-15.549-52.227-33.339l-0.177-0.298c-55.591-77.898-20.537-144.465 23.723-228.736l14.871-28.326c47.447-92.061 43.552-123.574 41.073-132.78-2.667-6.108-8.655-10.299-15.621-10.299-0.359 0-0.716 0.011-1.069 0.033l0.048-0.002zM533.245-64h-264.852c-37.27 0.2-67.429 30.359-67.629 67.61v70.835c0 9.191 7.451 16.642 16.642 16.642s16.642-7.451 16.642-16.642v-70.816c0-19.555 15.853-35.408 35.408-35.408v0h264.852c19.555 0 35.408 15.853 35.408 35.408v0 74.003c0 9.191 7.451 16.642 16.642 16.642s16.642-7.451 16.642-16.642v0-74.003c-0.188-37.404-30.553-67.652-67.983-67.652-0.623 0-1.244 0.008-1.863 0.025l0.091-0.002z" />
<glyph unicode="&#xe92e;" glyph-name="punch-bowl" horiz-adv-x="1036" d="M517.956 31.705c-287.525 0-517.956 249.736-517.956 556.977-0.064 0.616-0.101 1.331-0.101 2.054 0 11.569 9.379 20.948 20.948 20.948 0.035 0 0.071 0 0.106 0h994.010c0.001 0 0.003 0 0.004 0 11.569 0 20.948-9.379 20.948-20.948 0-0.144-0.001-0.289-0.004-0.432v0.021c0-307.241-232.485-558.62-517.956-558.62zM42.718 565.68c10.269-274.381 219.341-492.9 475.238-492.9s464.969 219.341 475.238 492.9zM798.909-64h-561.906c-7.724 0.071-14.442 4.311-18.019 10.577l-0.054 0.103c-1.726 3.014-2.745 6.625-2.745 10.474s1.018 7.46 2.8 10.579l-0.055-0.105 82.15 140.066c3.667 6.397 10.456 10.636 18.234 10.636 3.874 0 7.503-1.052 10.616-2.885l-0.098 0.053c6.476-3.541 10.795-10.306 10.795-18.080 0-3.946-1.113-7.632-3.042-10.761l0.051 0.089-64.488-108.438h489.203l-62.434 108.438c-1.131 2.52-1.789 5.462-1.789 8.558 0 11.796 9.563 21.359 21.359 21.359 7.149 0 13.477-3.512 17.354-8.905l0.044-0.064 82.15-140.066c1.656-2.964 2.631-6.503 2.631-10.27 0-11.71-9.424-21.22-21.102-21.357h-0.013zM462.915 180.396c-86.081 21.54-148.83 98.212-148.83 189.539 0 15.669 1.847 30.906 5.335 45.506l-0.268-1.328c1.367 5.912 6.588 10.253 12.822 10.253 1.136 0 2.237-0.144 3.288-0.415l-0.091 0.020 305.187-71.471c5.935-1.16 10.352-6.319 10.352-12.509 0-1.251-0.18-2.459-0.516-3.601l0.023 0.090c-1.402-5.867-6.6-10.161-12.801-10.161-0.995 0-1.964 0.11-2.895 0.32l0.088-0.017-292.043 68.595c-0.578-5.23-0.907-11.294-0.907-17.436 0-92.782 75.215-167.997 167.997-167.997 76.315 0 140.745 50.886 161.211 120.578l0.299 1.188 130.619 559.852c10.785 37.962 45.143 65.299 85.887 65.299 49.227 0 89.133-39.906 89.133-89.133 0-6.101-0.613-12.058-1.78-17.814l0.097 0.572c-1.557-5.895-6.842-10.17-13.125-10.17-1.025 0-2.024 0.114-2.984 0.33l0.091-0.017c-6.154 1.174-10.742 6.513-10.742 12.923 0 1.705 0.325 3.334 0.915 4.829l-0.031-0.089c1.022 4.258 1.609 9.146 1.609 14.171 0 34.916-28.305 63.221-63.221 63.221-29.891 0-54.937-20.744-61.527-48.621l-0.086-0.429-129.386-562.317c-21.54-86.081-98.212-148.83-189.539-148.83-15.669 0-30.906 1.847-45.506 5.335l1.328-0.268z" />
<glyph unicode="&#xe92f;" glyph-name="rocks-glass" horiz-adv-x="1088" d="M955.943-64h-822.969c-0.050 0-0.109 0-0.169 0-15.085 0-27.509 11.393-29.136 26.044l-0.012 0.132-104.703 965.366c-0.15 1.104-0.235 2.379-0.235 3.675 0 15.902 12.891 28.793 28.793 28.793 0.267 0 0.533-0.004 0.798-0.011l-0.039 0.001h1030.806c0.226 0.006 0.492 0.010 0.759 0.010 15.902 0 28.793-12.891 28.793-28.793 0-1.296-0.086-2.571-0.251-3.821l0.016 0.147-104.703-965.366c-1.571-14.318-13.253-25.459-27.678-26.173l-0.069-0.003zM159.673-4.843h769.571l96.851 906.209h-963.272zM976.36 129.701h-863.804c-0.157-0.003-0.342-0.005-0.528-0.005-16.009 0-29.021 12.832-29.312 28.771v0.027c0 16.48 13.36 29.84 29.84 29.84v0h863.804c16.48 0 29.84-13.36 29.84-29.84v0c-0.292-15.967-13.303-28.798-29.312-28.798-0.186 0-0.371 0.002-0.556 0.005h0.028z" />
<glyph unicode="&#xe930;" glyph-name="shaker-recipes" horiz-adv-x="494" d="M478.935 624.678c-8.485 0-15.363 6.878-15.363 15.363v0c0 86.168-96.856 156.305-216.423 156.305s-216.423-70.137-216.423-156.305c0-8.485-6.878-15.363-15.363-15.363s-15.363 6.878-15.363 15.363v0c0 102.868 110.883 186.698 247.149 186.698s247.149-83.83 247.149-186.698c0-8.485-6.878-15.363-15.363-15.363v0zM398.445-11.564h-302.591c-0.028 0-0.060 0-0.093 0-7.712 0-14.068 5.809-14.93 13.29l-0.007 0.070-80.825 634.573c-0.037 0.406-0.057 0.878-0.057 1.355 0 4.104 1.542 7.848 4.079 10.684l-0.014-0.015c2.65 3.079 6.551 5.017 10.905 5.017 0.158 0 0.316-0.003 0.473-0.008l-0.023 0.001h463.572c0.134 0.004 0.292 0.007 0.45 0.007 4.354 0 8.256-1.938 10.89-4.998l0.016-0.019c2.523-2.82 4.065-6.564 4.065-10.668 0-0.477-0.021-0.949-0.062-1.416l0.004 0.060-80.157-634.573c-0.86-7.56-7.22-13.379-14.938-13.379-0.267 0-0.532 0.007-0.796 0.021l0.037-0.002zM109.213 18.828h275.872l76.483 605.85h-428.838zM397.109-64h-300.587c-0.001 0-0.002 0-0.004 0-8.3 0-15.029 6.729-15.029 15.029 0 0.117 0.001 0.235 0.004 0.351v-0.017 52.102c-0.002 0.099-0.004 0.217-0.004 0.334 0 8.3 6.729 15.029 15.029 15.029 0.001 0 0.003 0 0.004 0h300.587c0.001 0 0.002 0 0.004 0 8.3 0 15.029-6.729 15.029-15.029 0-0.117-0.001-0.235-0.004-0.351v0.017-52.102c0.002-0.099 0.004-0.217 0.004-0.334 0-8.3-6.729-15.029-15.029-15.029-0.001 0-0.003 0-0.004 0v0zM113.555-33.607h267.189v22.043h-267.189zM343.671 802.359h-193.044c-11.805 0-21.375 9.57-21.375 21.375v0 114.891c0 11.805 9.57 21.375 21.375 21.375v0h193.044c11.805 0 21.375-9.57 21.375-21.375v0-114.891c0-11.805-9.57-21.375-21.375-21.375v0zM172.003 845.109h150.294v70.471h-150.294z" />
<glyph unicode="&#xe931;" glyph-name="wine-glass" horiz-adv-x="571" d="M450.56-64h-330.24c-0.743-0.102-1.601-0.16-2.474-0.16-10.604 0-19.2 8.596-19.2 19.2s8.596 19.2 19.2 19.2c0.872 0 1.731-0.058 2.572-0.171l-0.098 0.011c66.793 1.574 123.324 43.844 145.872 102.903l0.368 1.097v234.56c0 45.12-33.6 64-92.48 96-52.48 27.52-118.080 61.76-153.6 136-71.040 147.52 64.64 395.2 70.72 405.44 3.157 5.913 9.271 9.878 16.314 9.92h355.846c7.049-0.042 13.163-4.007 16.271-9.82l0.049-0.1c6.080-10.24 141.76-257.92 70.72-406.080-35.52-74.24-101.12-108.48-153.6-136-58.88-32-92.48-50.88-92.48-96v-234.56c22.916-60.156 79.447-102.426 146.050-103.996l0.19-0.004c0.743 0.102 1.601 0.16 2.474 0.16 10.604 0 19.2-8.596 19.2-19.2s-8.596-19.2-19.2-19.2c-0.872 0-1.731 0.058-2.572 0.171l0.098-0.011zM233.92-25.92h103.040c-20.447 16.078-37.587 35.257-50.985 56.988l-0.535 0.932c-13.933-22.664-31.074-41.842-51.058-57.569l-0.462-0.351zM119.040 921.92c-23.68-46.4-119.68-246.080-64-360.64 32-64 84.48-91.52 137.28-119.040 36.802-15.986 67.884-38.862 92.873-67.234l0.247-0.286c25.241 28.793 56.457 51.698 91.775 66.883l1.665 0.637c52.8 27.52 106.88 56 137.28 119.040 55.36 114.56-40.64 314.24-64 360.64z" />
<glyph unicode="&#xe932;" glyph-name="apple" d="M412.16-73.813c-1.387-0.029-3.021-0.046-4.66-0.046-77.792 0-146.869 37.31-190.315 95.011l-0.438 0.608c-80.712 95.095-129.793 219.241-129.793 354.851 0 34.28 3.136 67.827 9.138 100.371l-0.518-3.382c29.44 139.093 141.227 213.333 291.413 196.267 48.592-2.604 93.485-16.205 132.949-38.338l-1.536 0.791c37.928 21.342 82.822 34.943 130.646 37.514l0.767 0.033c150.187 17.92 261.973-57.173 291.413-196.267 5.564-29.373 8.746-63.161 8.746-97.693 0-135.679-49.131-259.882-130.573-355.79l0.654 0.789c-107.52-137.387-266.667-89.173-301.653-76.373-31.62-11.41-68.111-18.112-106.135-18.346l-0.105-0.001zM518.4-19.627c1.024 0.275 2.2 0.434 3.413 0.434s2.389-0.158 3.509-0.455l-0.095 0.021c6.827-2.987 163.413-69.973 267.947 64 76.488 89.542 123.030 206.669 123.030 334.666 0 32.52-3.004 64.339-8.751 95.194l0.494-3.193c-26.027 122.027-121.173 185.173-256 170.667-100.693-11.947-121.173-35.84-121.173-36.267-3.117-4.507-8.258-7.422-14.080-7.422s-10.963 2.915-14.043 7.365l-0.037 0.057s-24.32 24.32-121.6 35.84c-133.12 16.213-227.84-47.36-253.867-170.667-5.179-27.514-8.141-59.167-8.141-91.511 0-128.136 46.49-245.415 123.522-335.888l-0.608 0.732c104.533-134.4 266.24-64.427 267.947-64 1.537 0.477 3.304 0.752 5.136 0.752 1.202 0 2.376-0.118 3.512-0.344l-0.114 0.019zM518.4 593.493c-0.137-0.004-0.299-0.007-0.46-0.007-6.644 0-12.354 3.996-14.859 9.716l-0.041 0.104c0 2.133-96 210.347 45.227 351.573 3.028 3.12 7.261 5.057 11.947 5.057s8.919-1.937 11.943-5.053l0.004-0.004c3.144-3.097 5.091-7.401 5.091-12.16s-1.948-9.063-5.089-12.158l-0.002-0.002c-123.733-124.16-39.253-311.040-38.4-312.747 1.115-2.206 1.767-4.808 1.767-7.563 0-6.815-3.995-12.697-9.77-15.433l-0.104-0.044c-2.157-0.8-4.649-1.268-7.248-1.28h-0.005zM597.333 741.12c-0.088 0-0.192 0-0.295 0-42.292 0-82.267 9.925-117.721 27.572l1.536-0.692c-4.336 2.138-7.579 5.938-8.93 10.546l-0.030 0.121c-0.124 0.821-0.195 1.767-0.195 2.731 0 4.457 1.519 8.56 4.067 11.818l-0.032-0.042c3.413 4.693 85.333 124.587 213.333 143.36 17.153 3.974 36.849 6.252 57.078 6.252 50.85 0 98.338-14.394 138.611-39.329l-1.129 0.651c3.47-3.119 5.816-7.428 6.391-12.281l0.009-0.093c0.035-0.4 0.055-0.866 0.055-1.336 0-4.477-1.815-8.53-4.748-11.464v0s-129.707-137.813-288-137.813zM515.413 790.187c145.493-54.187 282.88 55.040 328.533 96.427-30.311 13.063-65.598 20.66-102.66 20.66-17.106 0-33.833-1.618-50.038-4.71l1.659 0.263c-72.49-16.836-133.743-56.985-176.983-111.967l-0.51-0.673z" />
<glyph unicode="&#xe933;" glyph-name="calc-results" d="M376.64 708.16h-288c-0.070 0.001-0.152 0.002-0.234 0.002-5.967 0-11.155-3.333-13.805-8.239l-0.041-0.083c-16.55-31.619-26.531-68.969-27.197-108.587l-0.003-0.213c0-112.96 67.2-192 168.96-197.76v-217.28h-71.68c-8.837 0-16-7.163-16-16s7.163-16 16-16v0h181.76c8.837 0 16 7.163 16 16s-7.163 16-16 16v0h-77.12v217.28c101.44 7.36 168.64 84.8 168.64 197.76-0.696 39.798-10.551 77.137-27.538 110.211l0.658-1.411c-2.852 5.003-8.151 8.321-14.225 8.321-0.061 0-0.123 0-0.184-0.001h0.009zM99.52 676.16h267.2c8.874-19.931 15.013-43.049 17.217-67.304l0.063-0.856h-302.72c2.602 25.195 9.060 48.274 18.804 69.532l-0.564-1.372zM233.28 424.64c-87.68 0-145.6 58.56-151.68 150.4h302.4c-5.44-91.84-64-150.4-150.72-150.4zM971.2 584.32c2.828 2.884 4.574 6.838 4.574 11.2 0 8.837-7.163 16-16 16-0.033 0-0.066 0-0.099 0h-48.955c19.328 0.667 36.137 10.865 45.945 26.017l0.135 0.223c5.267 8.586 8.387 18.983 8.387 30.109 0 4.412-0.491 8.709-1.42 12.84l0.074-0.389c-2.394 9.437-6.839 17.62-12.851 24.378l0.051-0.058 14.4 22.72c1.403 2.36 2.233 5.203 2.233 8.239 0 5.809-3.035 10.909-7.606 13.801l-0.067 0.040c-2.441 1.586-5.427 2.529-8.633 2.529-5.615 0-10.554-2.892-13.409-7.268l-0.038-0.061-14.4-23.040c-4.832 1.49-10.386 2.348-16.141 2.348-20.044 0-37.656-10.412-47.724-26.122l-0.136-0.226c-5.381-8.386-8.578-18.62-8.578-29.601 0-4.599 0.561-9.067 1.618-13.34l-0.080 0.38c2.394-9.437 6.839-17.62 12.851-24.378l-0.051 0.058-12.16-19.2h-141.12c-8.011 63.692-61.837 112.466-127.054 112.466-70.692 0-128-57.308-128-128s57.308-128 128-128c29.248 0 56.205 9.81 77.76 26.319l-0.306-0.225 94.4-96v-220.8h-64c-8.837 0-16-7.163-16-16s7.163-16 16-16v0h160c8.837 0 16 7.163 16 16s-7.163 16-16 16v0h-64v219.52zM705.92 495.040h75.84l-29.76-47.040zM819.52 495.040h20.16l-56.96-58.88zM870.72 527.040h-32l32 52.48h50.88zM888.32 680.64c4.319 6.776 11.795 11.205 20.305 11.205 0.174 0 0.348-0.002 0.521-0.006h-0.026c0.058 0.001 0.127 0.001 0.196 0.001 4.658 0 9.011-1.31 12.71-3.581l-0.106 0.060c5.375-3.438 9.225-8.859 10.534-15.207l0.026-0.153c0.492-1.764 0.775-3.79 0.775-5.882 0-4.594-1.363-8.869-3.708-12.444l0.053 0.086c-4.453-6.847-12.067-11.312-20.724-11.312-4.764 0-9.211 1.352-12.981 3.693l0.105-0.061c-5.375 3.438-9.225 8.859-10.534 15.207l-0.026 0.153c-0.476 1.749-0.749 3.756-0.749 5.828 0 4.609 1.353 8.901 3.684 12.502l-0.055-0.090zM893.76 613.44c3.977-1.053 8.585-1.742 13.325-1.917l0.115-0.003h-14.72zM801.92 527.040h-128l-50.88 52.48h211.2zM489.92 595.52c1.607 51.762 43.953 93.112 95.957 93.112 46.335 0 85.002-32.826 94.016-76.491l0.107-0.621h-94.080c-0.028 0-0.061 0-0.094 0-8.837 0-16-7.163-16-16 0-4.362 1.746-8.317 4.576-11.203l-0.002 0.003 65.6-67.52c-15.141-10.445-33.883-16.683-54.082-16.683-52.809 0-95.66 42.641-95.998 95.371v0.032z" />
<glyph unicode="&#xe934;" glyph-name="inspiration" d="M760.96 471.36c-10.145 133.014-120.568 237.098-255.301 237.098-133.83 0-243.675-102.694-255.032-233.578l-0.067-0.96c0-3.2-11.84-80.32 86.4-189.76 14.135-22.208 23.107-48.954 24.623-77.677l0.017-0.403c0-4.48 0-7.68 0-9.6 0.297-3.402 0.466-7.361 0.466-11.36s-0.169-7.958-0.501-11.871l0.035 0.511v-101.44c-0.216-0.913-0.34-1.962-0.34-3.040s0.124-2.127 0.358-3.133l-0.018 0.093c0.716-2.057 1.93-3.787 3.502-5.105l0.018-0.015 43.84-43.2c23.998-18.462 54.474-29.588 87.549-29.588 2.297 0 4.582 0.054 6.853 0.16l-0.321-0.012c1.983-0.098 4.307-0.154 6.644-0.154 33.192 0 63.755 11.255 88.081 30.157l-0.325-0.243 43.52 42.88c1.59 1.333 2.804 3.063 3.495 5.039l0.025 0.081c0.216 0.913 0.34 1.962 0.34 3.040s-0.124 2.127-0.358 3.133l0.018-0.093v101.44c-0.297 3.402-0.466 7.361-0.466 11.36s0.169 7.958 0.501 11.871l-0.035-0.511c0 1.92 0 5.12 1.6 9.92 1.575 28.87 10.42 55.382 24.718 78.118l-0.398-0.678c102.080 109.76 90.88 186.88 90.56 187.52zM394.88 87.36v19.52h221.44v-19.52zM616.32 138.88h-221.44v16.32h221.44zM505.6 20.48c-2.005-0.128-4.347-0.201-6.707-0.201-24.509 0-47.179 7.872-65.619 21.226l0.326-0.225-15.68 15.040h175.36l-15.040-14.72c-18.639-13.296-41.881-21.258-66.983-21.258-1.99 0-3.968 0.050-5.933 0.149l0.276-0.011zM649.6 304.64c-18.034-26.635-29.655-58.955-31.969-93.821l-0.031-0.579c0.067-1.005 0.104-2.178 0.104-3.36s-0.038-2.355-0.113-3.519l0.008 0.159c-0.171-2.298-0.269-4.978-0.269-7.68s0.098-5.382 0.29-8.036l-0.021 0.356h-222.080c0.253 2.304 0.397 4.975 0.397 7.68s-0.144 5.376-0.425 8.007l0.028-0.327s0 3.52 0 6.72c-2.042 36.006-13.705 68.924-32.433 96.682l0.433-0.682c-87.36 96-79.36 163.2-79.040 166.080 0.726 123.162 100.736 222.724 224 222.724 123.714 0 224.004-100.29 224.004-224.004 0-0.45-0.001-0.9-0.004-1.349v0.069s3.52-67.52-82.88-165.12zM505.6 640c-95.612 0-173.12-77.508-173.12-173.12v0c0-8.837 7.163-16 16-16v0c8.837 0 16 7.163 16 16v0c0.182 77.865 63.255 140.938 141.103 141.12h0.017c8.837 0 16 7.163 16 16v0c0 8.837-7.163 16-16 16v0zM514.88 768c8.837 0 16 7.163 16 16v0 107.52c0 8.837-7.163 16-16 16v0c-8.837 0-16-7.163-16-16v0-106.88c-0.008-0.191-0.013-0.415-0.013-0.64 0-8.837 7.163-16 16-16 0.004 0 0.009 0 0.013 0h-0.001zM731.2 676.8c0.183-0.008 0.397-0.013 0.613-0.013 4.154 0 7.907 1.721 10.583 4.489l75.844 75.844c2.828 2.884 4.574 6.838 4.574 11.2s-1.746 8.316-4.576 11.203l0.003-0.003c-2.9 2.923-6.919 4.733-11.36 4.733s-8.46-1.81-11.359-4.732l-75.521-75.521c-2.923-2.9-4.733-6.919-4.733-11.36s1.81-8.46 4.732-11.359l0.001-0.001c2.68-2.772 6.433-4.493 10.587-4.493 0.216 0 0.43 0.005 0.644 0.014l-0.030-0.001zM926.080 490.56h-106.88c-8.837 0-16-7.163-16-16v0c0-8.837 7.163-16 16-16v0h106.88c8.837 0 16 7.163 16 16v0c0 8.837-7.163 16-16 16v0zM738.56 269.44c-2.9 2.923-6.919 4.733-11.36 4.733s-8.46-1.81-11.359-4.732l-0.001-0.001c-2.828-2.884-4.574-6.838-4.574-11.2s1.746-8.316 4.576-11.203l75.837-75.837c2.836-2.94 6.801-4.774 11.195-4.8h0.005c4.502 0.011 8.574 1.844 11.52 4.8v0c2.847 2.934 4.603 6.942 4.603 11.36s-1.755 8.426-4.607 11.364l0.004-0.004zM281.6 273.6l-75.84-75.84c-2.847-2.934-4.603-6.942-4.603-11.36s1.755-8.426 4.607-11.364l-0.004 0.004c2.966-2.776 6.964-4.481 11.36-4.481s8.394 1.705 11.369 4.49l-0.009-0.009 75.52 75.84c2.923 2.9 4.733 6.919 4.733 11.36s-1.81 8.46-4.732 11.359l-0.001 0.001c-2.884 2.828-6.838 4.574-11.2 4.574s-8.316-1.746-11.203-4.576l0.003 0.003zM220.8 480c0 8.837-7.163 16-16 16v0h-106.88c-8.837 0-16-7.163-16-16v0c0-8.837 7.163-16 16-16v0h106.88c8.837 0 16 7.163 16 16v0zM285.44 685.44c2.854-2.911 6.808-4.735 11.188-4.8h0.012c4.502 0.011 8.574 1.844 11.52 4.8v0c2.828 2.884 4.574 6.838 4.574 11.2s-1.746 8.316-4.576 11.203l-75.837 75.837c-2.907 2.907-6.924 4.705-11.36 4.705-8.873 0-16.065-7.193-16.065-16.065 0-4.436 1.798-8.453 4.705-11.36v0z" />
<glyph unicode="&#xe935;" glyph-name="person-plus" d="M419.352 428.495c-126.781 0-224.305 97.524-224.305 219.429s97.524 224.305 224.305 224.305 224.305-102.4 224.305-224.305v0c-4.876-126.781-102.4-219.429-224.305-219.429zM419.352 842.971c-107.276-4.876-195.048-87.771-195.048-195.048s87.771-190.171 190.171-190.171 190.171 87.771 190.171 190.171v0c4.876 107.276-82.895 195.048-185.295 195.048zM570.514 330.971c29.257 0 63.39-9.752 87.771-19.505 0 4.876 0 4.876 0 9.752 0 9.752 0 19.505 4.876 24.381-29.257 14.629-63.39 19.505-92.648 19.505-9.752 0-14.629-9.752-14.629-19.505 0-4.876 4.876-9.752 14.629-14.629v0zM765.562 209.067v0c14.629-29.257 19.505-63.39 19.505-97.524v-34.133h-741.181v34.133c0 121.905 97.524 219.429 219.429 219.429 9.752 0 14.629 9.752 14.629 19.505s-9.752 14.629-14.629 14.629c-141.41 0-248.686-112.152-248.686-253.562v-48.762c0-9.752 9.752-19.505 19.505-19.505v0h770.438c9.752 0 19.505 9.752 19.505 19.505v0 48.762c0 34.133-9.752 68.267-19.505 102.4-14.629 0-29.257 0-39.010-4.876zM828.952 194.438c-107.276 0-199.924 87.771-199.924 199.924 0 107.276 92.648 199.924 199.924 199.924s199.924-87.771 199.924-199.924c0-112.152-87.771-199.924-199.924-199.924zM828.952 565.029c-92.648 0-170.667-78.019-170.667-170.667s78.019-170.667 170.667-170.667c92.648 0 170.667 78.019 170.667 170.667s-73.143 170.667-170.667 170.667zM828.952 282.21c-9.752 0-14.629 4.876-14.629 14.629v195.048c0 9.752 4.876 14.629 14.629 14.629s14.629-4.876 14.629-14.629v-195.048c0-9.752-4.876-14.629-14.629-14.629zM926.476 379.733h-195.048c-9.752 0-14.629 4.876-14.629 14.629s4.876 14.629 14.629 14.629h195.048c9.752 0 14.629-4.876 14.629-14.629s-4.876-14.629-14.629-14.629z" />
<glyph unicode="&#xe936;" glyph-name="person" d="M512.512 415.232c-150.434 0-272.384 121.95-272.384 272.384s121.95 272.384 272.384 272.384c150.434 0 272.384-121.95 272.384-272.384v0c-0.291-150.316-122.068-272.093-272.356-272.384h-0.028zM512.512 921.6c-129.508 0-234.495-104.988-234.495-234.496s104.987-234.496 234.496-234.496c129.509 0 234.496 104.987 234.496 234.496 0 0.18 0 0.36-0.001 0.54v-0.028c-0.291 129.288-105.167 233.984-234.495 233.984 0 0 0 0 0 0v0zM983.040-41.984h-938.496c-10.462 0-18.944 8.482-18.944 18.944v0 58.368c0 169.662 137.538 307.2 307.2 307.2v0c9.308-1.567 16.31-9.566 16.31-19.2s-7.003-17.633-16.196-19.184l-0.114-0.016c-1.373 0.025-2.993 0.040-4.616 0.040-147.323 0-266.752-119.429-266.752-266.752 0-0.734 0.003-1.467 0.009-2.2l-0.001 0.112v-38.4h900.096v38.4c0 147.323-119.429 266.752-266.752 266.752v0c-9.308 1.567-16.31 9.566-16.31 19.2s7.003 17.633 16.196 19.184l0.114 0.016c168.557-1.45 304.64-138.428 304.64-307.189 0-0.004 0-0.008 0-0.011v0.001-57.344c-0.428-9.203-7.361-16.664-16.284-17.909l-0.1-0.011z" />
<glyph unicode="&#xe937;" glyph-name="printer" d="M1001.882 234.598h-215.859c-10.632 0-19.251 8.619-19.251 19.251s8.619 19.251 19.251 19.251h194.97v368.64h-942.080v-368.64h194.56c10.632 0 19.251-8.619 19.251-19.251s-8.619-19.251-19.251-19.251h-214.63c-10.632 0-19.251 8.619-19.251 19.251v0 409.6c0.871 9.904 9.126 17.613 19.181 17.613 0.025 0 0.049 0 0.074 0h983.036c10.454-0.23 18.842-8.759 18.842-19.247 0-0.002 0-0.003 0-0.005v0-409.6c-0.859-9.788-8.93-17.432-18.824-17.613h-0.018zM785.613 64.614h-552.141c-10.632 0-19.251 8.619-19.251 19.251v0 312.525c0.23 10.454 8.759 18.842 19.247 18.842 0.002 0 0.003 0 0.005 0h552.141c0.001 0 0.003 0 0.004 0 10.488 0 19.017-8.387 19.246-18.82v-312.546c0-10.632-8.619-19.251-19.251-19.251v0zM253.133 103.117h513.638v274.022h-514.048zM786.022 642.56c-10.632 0-19.251 8.619-19.251 19.251v136.806h-514.048v-136.806c0-10.632-8.619-19.251-19.251-19.251s-19.251 8.619-19.251 19.251v0 156.058c0 10.632 8.619 19.251 19.251 19.251v0h552.55c10.632 0 19.251-8.619 19.251-19.251v0-156.058c0-10.632-8.619-19.251-19.251-19.251v0z" />
<glyph unicode="&#xe938;" glyph-name="play-button" d="M707.52 461.76l-281.92 174.080c-2.371 1.466-5.245 2.334-8.322 2.334-8.757 0-15.871-7.035-15.998-15.762v-348.812c0.127-8.739 7.241-15.774 15.998-15.774 3.077 0 5.951 0.869 8.391 2.374l-0.069-0.040 281.92 174.080c4.565 2.944 7.545 8.004 7.545 13.76s-2.98 10.816-7.481 13.721l-0.064 0.039zM512-55.36c-277.998 0-503.36 225.362-503.36 503.36s225.362 503.36 503.36 503.36c277.998 0 503.36-225.362 503.36-503.36v0c-0.364-277.852-225.508-502.996-503.325-503.36h-0.035zM512 919.36c-260.325 0-471.36-211.035-471.36-471.36s211.035-471.36 471.36-471.36c260.325 0 471.36 211.035 471.36 471.36v0c-0.364 260.178-211.181 470.996-471.325 471.36h-0.035z" />
</font>
</defs>
</svg>
